<?xml version="1.0" encoding="UTF-8" ?>
<!DOCTYPE svg PUBLIC "-//W3C//DTD SVG 1.1//EN" "http://www.w3.org/Graphics/SVG/1.1/DTD/svg11.dtd">
<svg width="640pt" height="384pt" viewBox="0 0 640 384" version="1.1" xmlns="http://www.w3.org/2000/svg">
<path fill="#000000" d=" M 43.16 117.10 C 58.11 117.08 73.06 116.94 88.00 117.17 C 88.26 117.36 88.79 117.73 89.05 117.92 C 107.25 136.13 125.51 154.27 143.72 172.47 C 161.36 154.53 179.38 136.94 197.11 119.08 C 198.15 118.06 199.29 116.84 200.92 117.08 C 212.95 117.03 224.98 117.08 237.01 117.06 C 239.34 117.05 241.71 116.86 244.00 117.44 C 230.10 130.71 216.73 144.55 203.03 158.04 C 173.13 187.83 143.25 217.64 113.35 247.43 C 106.79 253.84 100.52 260.56 93.77 266.74 C 78.83 267.17 63.85 266.88 48.89 266.88 C 73.10 242.93 97.03 218.70 121.33 194.86 C 95.17 169.05 69.25 142.99 43.16 117.10 Z" />
<path fill="#000000" d=" M 255.10 117.10 C 267.24 117.02 279.38 117.06 291.52 117.09 C 291.47 167.03 291.49 216.98 291.51 266.92 C 279.42 266.84 267.32 267.16 255.24 266.76 C 255.33 233.80 255.18 200.84 255.32 167.87 C 223.69 199.70 191.77 231.24 160.06 262.98 C 158.30 264.56 156.77 267.27 154.02 266.82 C 137.70 266.71 121.37 266.86 105.04 266.74 C 155.08 216.88 205.05 166.95 255.10 117.10 Z" />
<path fill="#000000" d=" M 299.75 117.14 C 309.05 116.97 318.35 117.09 327.66 117.10 C 344.21 133.99 361.12 150.54 377.88 167.23 C 394.62 150.50 411.39 133.79 428.16 117.09 C 437.39 117.05 446.63 117.06 455.86 117.08 C 455.76 167.03 455.76 216.97 455.86 266.92 C 446.53 266.90 437.19 267.04 427.86 266.85 C 427.96 235.34 427.99 203.83 427.84 172.33 C 411.13 189.03 394.66 205.96 377.83 222.54 C 360.87 206.00 344.42 188.98 327.69 172.23 C 327.78 203.79 327.58 235.35 327.80 266.91 C 318.46 266.91 309.12 267.01 299.78 266.88 C 299.76 216.97 299.83 167.05 299.75 117.14 Z" />
<path fill="#000000" d=" M 464.12 117.09 C 473.47 117.11 482.81 116.96 492.16 117.15 C 492.07 157.85 492.12 198.54 492.14 239.24 C 517.10 239.17 542.07 239.25 567.04 239.19 C 568.29 239.31 569.89 238.95 570.82 240.08 C 579.70 249.07 588.78 257.85 597.61 266.89 C 553.11 266.98 508.62 266.94 464.12 266.92 C 464.23 216.97 464.24 167.03 464.12 117.09 Z" />
</svg>
